<?xml version="1.0" encoding="UTF-8" standalone="no"?><svg xmlns="http://www.w3.org/2000/svg" xmlns:xlink="http://www.w3.org/1999/xlink" contentScriptType="application/ecmascript" contentStyleType="text/css" height="532px" preserveAspectRatio="none" style="width:1034px;height:532px;" version="1.1" viewBox="0 0 1034 532" width="1034px" zoomAndPan="magnify"><defs><filter height="300%" id="f8einzs" width="300%" x="-1" y="-1"><feGaussianBlur result="blurOut" stdDeviation="2.0"/><feColorMatrix in="blurOut" result="blurOut2" type="matrix" values="0 0 0 0 0 0 0 0 0 0 0 0 0 0 0 0 0 0 .4 0"/><feOffset dx="4.0" dy="4.0" in="blurOut2" result="blurOut3"/><feBlend in="SourceGraphic" in2="blurOut3" mode="normal"/></filter></defs><g><!--cluster Main process--><polygon fill="#FFFFFF" filter="url(#f8einzs)" points="220,24,331,24,338,46.2969,510,46.2969,510,399,220,399,220,24" style="stroke: #000000; stroke-width: 2.0;"/><line style="stroke: #000000; stroke-width: 2.0;" x1="220" x2="338" y1="46.2969" y2="46.2969"/><text fill="#000000" font-family="sans-serif" font-size="14" font-weight="bold" lengthAdjust="spacingAndGlyphs" textLength="105" x="224" y="38.9951">Main process</text><!--cluster Child process--><polygon fill="#FFFFFF" filter="url(#f8einzs)" points="22,24,136,24,143,46.2969,196,46.2969,196,207,22,207,22,24" style="stroke: #000000; stroke-width: 2.0;"/><line style="stroke: #000000; stroke-width: 2.0;" x1="22" x2="143" y1="46.2969" y2="46.2969"/><text fill="#000000" font-family="sans-serif" font-size="14" font-weight="bold" lengthAdjust="spacingAndGlyphs" textLength="108" x="26" y="38.9951">Child process</text><!--cluster Worker 2--><polygon fill="#FFFFFF" filter="url(#f8einzs)" points="534,317,544,307,683,307,683,389,673,399,534,399,534,317" style="stroke: #000000; stroke-width: 2.0;"/><line style="stroke: #000000; stroke-width: 2.0;" x1="673" x2="682" y1="317" y2="308"/><line style="stroke: #000000; stroke-width: 2.0;" x1="534" x2="673" y1="317" y2="317"/><line style="stroke: #000000; stroke-width: 2.0;" x1="673" x2="673" y1="317" y2="399"/><text fill="#000000" font-family="sans-serif" font-size="14" font-weight="bold" lengthAdjust="spacingAndGlyphs" textLength="73" x="568" y="332.9951">Worker 2</text><!--cluster Worker 3--><polygon fill="#FFFFFF" filter="url(#f8einzs)" points="707,317,717,307,856,307,856,389,846,399,707,399,707,317" style="stroke: #000000; stroke-width: 2.0;"/><line style="stroke: #000000; stroke-width: 2.0;" x1="846" x2="855" y1="317" y2="308"/><line style="stroke: #000000; stroke-width: 2.0;" x1="707" x2="846" y1="317" y2="317"/><line style="stroke: #000000; stroke-width: 2.0;" x1="846" x2="846" y1="317" y2="399"/><text fill="#000000" font-family="sans-serif" font-size="14" font-weight="bold" lengthAdjust="spacingAndGlyphs" textLength="73" x="741" y="332.9951">Worker 3</text><!--cluster Worker 4--><polygon fill="#FFFFFF" filter="url(#f8einzs)" points="880,317,890,307,1029,307,1029,389,1019,399,880,399,880,317" style="stroke: #000000; stroke-width: 2.0;"/><line style="stroke: #000000; stroke-width: 2.0;" x1="1019" x2="1028" y1="317" y2="308"/><line style="stroke: #000000; stroke-width: 2.0;" x1="880" x2="1019" y1="317" y2="317"/><line style="stroke: #000000; stroke-width: 2.0;" x1="1019" x2="1019" y1="317" y2="399"/><text fill="#000000" font-family="sans-serif" font-size="14" font-weight="bold" lengthAdjust="spacingAndGlyphs" textLength="73" x="914" y="332.9951">Worker 4</text><!--cluster Common storage--><path d="M620,433 C620,423 695.5,423 695.5,423 C695.5,423 771,423 771,433 L771,515 C771,525 695.5,525 695.5,525 C695.5,525 620,525 620,515 L620,433 " fill="#FFFFFF" filter="url(#f8einzs)" style="stroke: #000000; stroke-width: 2.0;"/><path d="M620,433 C620,443 695.5,443 695.5,443 C695.5,443 771,443 771,433 " fill="none" style="stroke: #000000; stroke-width: 2.0;"/><text fill="#000000" font-family="sans-serif" font-size="14" font-weight="bold" lengthAdjust="spacingAndGlyphs" textLength="135" x="628" y="456.9951">Common storage</text><!--entity Worker--><rect fill="#FEFECE" filter="url(#f8einzs)" height="36.2969" style="stroke: #A80036; stroke-width: 1.5;" width="69" x="335.5" y="59"/><rect fill="#FEFECE" height="5" style="stroke: #A80036; stroke-width: 1.5;" width="10" x="330.5" y="64"/><rect fill="#FEFECE" height="5" style="stroke: #A80036; stroke-width: 1.5;" width="10" x="330.5" y="85.2969"/><text fill="#000000" font-family="sans-serif" font-size="14" lengthAdjust="spacingAndGlyphs" textLength="49" x="345.5" y="81.9951">Worker</text><!--entity Coordinator--><rect fill="#FEFECE" filter="url(#f8einzs)" height="36.2969" style="stroke: #A80036; stroke-width: 1.5;" width="101" x="392.5" y="155"/><rect fill="#FEFECE" height="5" style="stroke: #A80036; stroke-width: 1.5;" width="10" x="387.5" y="160"/><rect fill="#FEFECE" height="5" style="stroke: #A80036; stroke-width: 1.5;" width="10" x="387.5" y="181.2969"/><text fill="#000000" font-family="sans-serif" font-size="14" lengthAdjust="spacingAndGlyphs" textLength="81" x="402.5" y="177.9951">Coordinator</text><!--entity Leader--><rect fill="#FEFECE" filter="url(#f8einzs)" height="36.2969" style="stroke: #A80036; stroke-width: 1.5;" width="67" x="340.5" y="251"/><rect fill="#FEFECE" height="5" style="stroke: #A80036; stroke-width: 1.5;" width="10" x="335.5" y="256"/><rect fill="#FEFECE" height="5" style="stroke: #A80036; stroke-width: 1.5;" width="10" x="335.5" y="277.2969"/><text fill="#000000" font-family="sans-serif" font-size="14" lengthAdjust="spacingAndGlyphs" textLength="47" x="350.5" y="273.9951">Leader</text><!--entity TopologyProxy--><rect fill="#FEFECE" filter="url(#f8einzs)" height="36.2969" style="stroke: #A80036; stroke-width: 1.5;" width="121" x="236.5" y="155"/><rect fill="#FEFECE" height="5" style="stroke: #A80036; stroke-width: 1.5;" width="10" x="231.5" y="160"/><rect fill="#FEFECE" height="5" style="stroke: #A80036; stroke-width: 1.5;" width="10" x="231.5" y="181.2969"/><text fill="#000000" font-family="sans-serif" font-size="14" lengthAdjust="spacingAndGlyphs" textLength="101" x="246.5" y="177.9951">TopologyProxy</text><!--entity CustomStorageImplementation--><rect fill="#FEFECE" filter="url(#f8einzs)" height="36.2969" style="stroke: #A80036; stroke-width: 1.5;" width="235" x="258.5" y="347"/><rect fill="#FEFECE" height="5" style="stroke: #A80036; stroke-width: 1.5;" width="10" x="253.5" y="352"/><rect fill="#FEFECE" height="5" style="stroke: #A80036; stroke-width: 1.5;" width="10" x="253.5" y="373.2969"/><text fill="#000000" font-family="sans-serif" font-size="14" lengthAdjust="spacingAndGlyphs" textLength="215" x="268.5" y="369.9951">CustomStorageImplementation</text><!--entity TopologyWrapper--><rect fill="#FEFECE" filter="url(#f8einzs)" height="36.2969" style="stroke: #A80036; stroke-width: 1.5;" width="142" x="38" y="59"/><rect fill="#FEFECE" height="5" style="stroke: #A80036; stroke-width: 1.5;" width="10" x="33" y="64"/><rect fill="#FEFECE" height="5" style="stroke: #A80036; stroke-width: 1.5;" width="10" x="33" y="85.2969"/><text fill="#000000" font-family="sans-serif" font-size="14" lengthAdjust="spacingAndGlyphs" textLength="122" x="48" y="81.9951">TopologyWrapper</text><!--entity LocalTopology--><rect fill="#FEFECE" filter="url(#f8einzs)" height="36.2969" style="stroke: #A80036; stroke-width: 1.5;" width="119" x="49.5" y="155"/><rect fill="#FEFECE" height="5" style="stroke: #A80036; stroke-width: 1.5;" width="10" x="44.5" y="160"/><rect fill="#FEFECE" height="5" style="stroke: #A80036; stroke-width: 1.5;" width="10" x="44.5" y="181.2969"/><text fill="#000000" font-family="sans-serif" font-size="14" lengthAdjust="spacingAndGlyphs" textLength="99" x="59.5" y="177.9951">LocalTopology</text><!--entity Worker2--><rect fill="#FEFECE" filter="url(#f8einzs)" height="36.2969" style="stroke: #A80036; stroke-width: 1.5;" width="78" x="589" y="347"/><rect fill="#FEFECE" height="5" style="stroke: #A80036; stroke-width: 1.5;" width="10" x="584" y="352"/><rect fill="#FEFECE" height="5" style="stroke: #A80036; stroke-width: 1.5;" width="10" x="584" y="373.2969"/><text fill="#000000" font-family="sans-serif" font-size="14" lengthAdjust="spacingAndGlyphs" textLength="58" x="599" y="369.9951">Worker2</text><!--entity Worker3--><rect fill="#FEFECE" filter="url(#f8einzs)" height="36.2969" style="stroke: #A80036; stroke-width: 1.5;" width="78" x="723" y="347"/><rect fill="#FEFECE" height="5" style="stroke: #A80036; stroke-width: 1.5;" width="10" x="718" y="352"/><rect fill="#FEFECE" height="5" style="stroke: #A80036; stroke-width: 1.5;" width="10" x="718" y="373.2969"/><text fill="#000000" font-family="sans-serif" font-size="14" lengthAdjust="spacingAndGlyphs" textLength="58" x="733" y="369.9951">Worker3</text><!--entity Worker4--><rect fill="#FEFECE" filter="url(#f8einzs)" height="36.2969" style="stroke: #A80036; stroke-width: 1.5;" width="78" x="896" y="347"/><rect fill="#FEFECE" height="5" style="stroke: #A80036; stroke-width: 1.5;" width="10" x="891" y="352"/><rect fill="#FEFECE" height="5" style="stroke: #A80036; stroke-width: 1.5;" width="10" x="891" y="373.2969"/><text fill="#000000" font-family="sans-serif" font-size="14" lengthAdjust="spacingAndGlyphs" textLength="58" x="906" y="369.9951">Worker4</text><!--entity Storage--><rect fill="#FEFECE" filter="url(#f8einzs)" height="36.2969" style="stroke: #A80036; stroke-width: 1.5;" width="74" x="658" y="473"/><rect fill="#FEFECE" height="5" style="stroke: #A80036; stroke-width: 1.5;" width="10" x="653" y="478"/><rect fill="#FEFECE" height="5" style="stroke: #A80036; stroke-width: 1.5;" width="10" x="653" y="499.2969"/><text fill="#000000" font-family="sans-serif" font-size="14" lengthAdjust="spacingAndGlyphs" textLength="54" x="668" y="495.9951">Storage</text><path d="M383.389,95.241 C395.532,110.877 413.471,133.977 426.496,150.749 " fill="none" style="stroke: #A80036; stroke-width: 1.0;"/><polygon fill="#A80036" points="429.696,154.868,427.3339,145.3066,426.6288,150.9193,421.016,150.2142,429.696,154.868" style="stroke: #A80036; stroke-width: 1.0;"/><path d="M430.344,191.241 C418.867,206.877 401.911,229.977 389.599,246.749 " fill="none" style="stroke: #A80036; stroke-width: 1.0;"/><polygon fill="#A80036" points="386.575,250.868,395.1246,245.9788,389.5332,246.837,388.6751,241.2456,386.575,250.868" style="stroke: #A80036; stroke-width: 1.0;"/><path d="M356.611,95.241 C345.909,109.022 330.704,128.6 318.329,144.535 " fill="none" style="stroke: #A80036; stroke-width: 1.0;"/><polygon fill="#FFFFFF" points="310.304,154.868,317.1435,152.583,317.6648,145.3907,310.8253,147.6758,310.304,154.868" style="stroke: #A80036; stroke-width: 1.0;"/><path d="M442.435,191.016 C441.21,213.624 437.323,254.493 425,287 C417.299,307.315 403.791,327.956 392.906,342.748 " fill="none" style="stroke: #A80036; stroke-width: 1.0;"/><polygon fill="#A80036" points="389.912,346.759,398.5013,341.9398,392.9031,342.7523,392.0906,337.1541,389.912,346.759" style="stroke: #A80036; stroke-width: 1.0;"/><path d="M374.367,287.241 C374.691,302.479 375.166,324.807 375.52,341.458 " fill="none" style="stroke: #A80036; stroke-width: 1.0;"/><polygon fill="#A80036" points="375.635,346.868,379.4413,337.7844,375.5279,341.8691,371.4431,337.9558,375.635,346.868" style="stroke: #A80036; stroke-width: 1.0;"/><path d="M109,95.241 C109,110.479 109,132.807 109,149.458 " fill="none" style="stroke: #A80036; stroke-width: 1.0;"/><polygon fill="#A80036" points="109,154.868,113,145.868,109,149.868,105,145.868,109,154.868" style="stroke: #A80036; stroke-width: 1.0;"/><path d="M147.52,97.26 C181.438,114.219 230.363,138.681 262.891,154.945 " fill="none" style="stroke: #A80036; stroke-width: 1.0;"/><polygon fill="#A80036" points="143.045,95.023,149.306,102.6256,147.5171,97.2591,152.8837,95.4702,143.045,95.023" style="stroke: #A80036; stroke-width: 1.0;"/><path d="M420.021,383.111 C481.531,407.022 592.428,450.1287 652.894,473.6327 " fill="none" style="stroke: #A80036; stroke-width: 1.0;"/><polygon fill="#A80036" points="657.872,475.5676,650.9326,468.5787,653.2117,473.7562,648.0343,476.0353,657.872,475.5676" style="stroke: #A80036; stroke-width: 1.0;"/><path d="M637.316,383.242 C649.317,405.452 670.183,444.0695 683.257,468.2667 " fill="none" style="stroke: #A80036; stroke-width: 1.0;"/><polygon fill="#A80036" points="685.763,472.9048,685.0035,463.0853,683.386,468.506,677.9653,466.8885,685.763,472.9048" style="stroke: #A80036; stroke-width: 1.0;"/><path d="M752.684,383.242 C740.683,405.452 719.817,444.0695 706.743,468.2667 " fill="none" style="stroke: #A80036; stroke-width: 1.0;"/><polygon fill="#A80036" points="704.237,472.9048,712.0347,466.8885,706.614,468.506,704.9965,463.0853,704.237,472.9048" style="stroke: #A80036; stroke-width: 1.0;"/><path d="M901.881,383.111 C857.623,405.978 779.381,446.4033 732.844,470.4472 " fill="none" style="stroke: #A80036; stroke-width: 1.0;"/><polygon fill="#A80036" points="728.164,472.8652,737.9959,472.2867,732.6059,470.5696,734.3229,465.1797,728.164,472.8652" style="stroke: #A80036; stroke-width: 1.0;"/><!--
@startuml
package "Main process" {
  [Worker] - -> [Coordinator]
  [Coordinator] - -> [Leader]
  [Worker] - -o [TopologyProxy]

[Coordinator] - -> [CustomStorageImplementation]
[Leader] - -> [CustomStorageImplementation]
}

package "Child process" {
  [TopologyWrapper] - -> [LocalTopology]
}
 
node "Worker 2" {
  [Worker2]
} 
node "Worker 3" {
  [Worker3]
} 
node "Worker 4" {
  [Worker4]
} 


database "Common storage" {
    [Storage]
}

[TopologyProxy] -left-> [TopologyWrapper]
[CustomStorageImplementation] - -> [Storage]
[Worker2] - -> [Storage]
[Worker3] - -> [Storage]
[Worker4] - -> [Storage]
@enduml

PlantUML version 2017.09(Wed Apr 05 16:07:11 UTC 2017)
(GPL source distribution)
Java Runtime: Java(TM) SE Runtime Environment
JVM: Java HotSpot(TM) 64-Bit Server VM
Java Version: 1.7.0_25-b15
Operating System: Linux
Default Encoding: UTF-8
Language: en
Country: US
--></g></svg>