<?xml version="1.0" encoding="UTF-8" standalone="no"?><svg xmlns="http://www.w3.org/2000/svg" xmlns:xlink="http://www.w3.org/1999/xlink" contentScriptType="application/ecmascript" contentStyleType="text/css" height="557px" preserveAspectRatio="none" style="width:853px;height:557px;" version="1.1" viewBox="0 0 853 557" width="853px" zoomAndPan="magnify"><defs><filter height="300%" id="f3gmpy2nkbh2f" width="300%" x="-1" y="-1"><feGaussianBlur result="blurOut" stdDeviation="2.0"/><feColorMatrix in="blurOut" result="blurOut2" type="matrix" values="0 0 0 0 0 0 0 0 0 0 0 0 0 0 0 0 0 0 .4 0"/><feOffset dx="4.0" dy="4.0" in="blurOut2" result="blurOut3"/><feBlend in="SourceGraphic" in2="blurOut3" mode="normal"/></filter></defs><g><!--cluster Worker - Main process--><polygon fill="#FFFFFF" filter="url(#f3gmpy2nkbh2f)" points="541,24,726,24,733,46.2969,831,46.2969,831,419,541,419,541,24" style="stroke: #000000; stroke-width: 2.0;"/><line style="stroke: #000000; stroke-width: 2.0;" x1="541" x2="733" y1="46.2969" y2="46.2969"/><text fill="#000000" font-family="sans-serif" font-size="14" font-weight="bold" lengthAdjust="spacingAndGlyphs" textLength="179" x="545" y="38.9951">Worker - Main process</text><!--cluster Child process--><polygon fill="#FFFFFF" filter="url(#f3gmpy2nkbh2f)" points="343,120,457,120,464,142.2969,517,142.2969,517,303,343,303,343,120" style="stroke: #000000; stroke-width: 2.0;"/><line style="stroke: #000000; stroke-width: 2.0;" x1="343" x2="464" y1="142.2969" y2="142.2969"/><text fill="#000000" font-family="sans-serif" font-size="14" font-weight="bold" lengthAdjust="spacingAndGlyphs" textLength="108" x="347" y="134.9951">Child process</text><!--cluster Worker 2--><polygon fill="#FFFFFF" filter="url(#f3gmpy2nkbh2f)" points="22,337,32,327,171,327,171,409,161,419,22,419,22,337" style="stroke: #000000; stroke-width: 2.0;"/><line style="stroke: #000000; stroke-width: 2.0;" x1="161" x2="170" y1="337" y2="328"/><line style="stroke: #000000; stroke-width: 2.0;" x1="22" x2="161" y1="337" y2="337"/><line style="stroke: #000000; stroke-width: 2.0;" x1="161" x2="161" y1="337" y2="419"/><text fill="#000000" font-family="sans-serif" font-size="14" font-weight="bold" lengthAdjust="spacingAndGlyphs" textLength="73" x="56" y="352.9951">Worker 2</text><!--cluster Worker 3--><polygon fill="#FFFFFF" filter="url(#f3gmpy2nkbh2f)" points="195,337,205,327,344,327,344,409,334,419,195,419,195,337" style="stroke: #000000; stroke-width: 2.0;"/><line style="stroke: #000000; stroke-width: 2.0;" x1="334" x2="343" y1="337" y2="328"/><line style="stroke: #000000; stroke-width: 2.0;" x1="195" x2="334" y1="337" y2="337"/><line style="stroke: #000000; stroke-width: 2.0;" x1="334" x2="334" y1="337" y2="419"/><text fill="#000000" font-family="sans-serif" font-size="14" font-weight="bold" lengthAdjust="spacingAndGlyphs" textLength="73" x="229" y="352.9951">Worker 3</text><!--cluster Worker 4--><polygon fill="#FFFFFF" filter="url(#f3gmpy2nkbh2f)" points="368,337,378,327,517,327,517,409,507,419,368,419,368,337" style="stroke: #000000; stroke-width: 2.0;"/><line style="stroke: #000000; stroke-width: 2.0;" x1="507" x2="516" y1="337" y2="328"/><line style="stroke: #000000; stroke-width: 2.0;" x1="368" x2="507" y1="337" y2="337"/><line style="stroke: #000000; stroke-width: 2.0;" x1="507" x2="507" y1="337" y2="419"/><text fill="#000000" font-family="sans-serif" font-size="14" font-weight="bold" lengthAdjust="spacingAndGlyphs" textLength="73" x="402" y="352.9951">Worker 4</text><!--cluster Common storage--><path d="M281,453 C281,443 356.5,443 356.5,443 C356.5,443 432,443 432,453 L432,535 C432,545 356.5,545 356.5,545 C356.5,545 281,545 281,535 L281,453 " fill="#FFFFFF" filter="url(#f3gmpy2nkbh2f)" style="stroke: #000000; stroke-width: 2.0;"/><path d="M281,453 C281,463 356.5,463 356.5,463 C356.5,463 432,463 432,453 " fill="none" style="stroke: #000000; stroke-width: 2.0;"/><text fill="#000000" font-family="sans-serif" font-size="14" font-weight="bold" lengthAdjust="spacingAndGlyphs" textLength="135" x="289" y="476.9951">Common storage</text><!--entity Worker--><rect fill="#FEFECE" filter="url(#f3gmpy2nkbh2f)" height="36.2969" style="stroke: #A80036; stroke-width: 1.5;" width="69" x="656.5" y="59"/><rect fill="#FEFECE" height="5" style="stroke: #A80036; stroke-width: 1.5;" width="10" x="651.5" y="64"/><rect fill="#FEFECE" height="5" style="stroke: #A80036; stroke-width: 1.5;" width="10" x="651.5" y="85.2969"/><text fill="#000000" font-family="sans-serif" font-size="14" lengthAdjust="spacingAndGlyphs" textLength="49" x="666.5" y="81.9951">Worker</text><!--entity Coordinator--><rect fill="#FEFECE" filter="url(#f3gmpy2nkbh2f)" height="36.2969" style="stroke: #A80036; stroke-width: 1.5;" width="101" x="713.5" y="155"/><rect fill="#FEFECE" height="5" style="stroke: #A80036; stroke-width: 1.5;" width="10" x="708.5" y="160"/><rect fill="#FEFECE" height="5" style="stroke: #A80036; stroke-width: 1.5;" width="10" x="708.5" y="181.2969"/><text fill="#000000" font-family="sans-serif" font-size="14" lengthAdjust="spacingAndGlyphs" textLength="81" x="723.5" y="177.9951">Coordinator</text><!--entity Leader--><rect fill="#FEFECE" filter="url(#f3gmpy2nkbh2f)" height="36.2969" style="stroke: #A80036; stroke-width: 1.5;" width="67" x="660.5" y="251"/><rect fill="#FEFECE" height="5" style="stroke: #A80036; stroke-width: 1.5;" width="10" x="655.5" y="256"/><rect fill="#FEFECE" height="5" style="stroke: #A80036; stroke-width: 1.5;" width="10" x="655.5" y="277.2969"/><text fill="#000000" font-family="sans-serif" font-size="14" lengthAdjust="spacingAndGlyphs" textLength="47" x="670.5" y="273.9951">Leader</text><!--entity TopologyProxy--><rect fill="#FEFECE" filter="url(#f3gmpy2nkbh2f)" height="36.2969" style="stroke: #A80036; stroke-width: 1.5;" width="121" x="557.5" y="155"/><rect fill="#FEFECE" height="5" style="stroke: #A80036; stroke-width: 1.5;" width="10" x="552.5" y="160"/><rect fill="#FEFECE" height="5" style="stroke: #A80036; stroke-width: 1.5;" width="10" x="552.5" y="181.2969"/><text fill="#000000" font-family="sans-serif" font-size="14" lengthAdjust="spacingAndGlyphs" textLength="101" x="567.5" y="177.9951">TopologyProxy</text><!--entity CustomStorageImplementation--><rect fill="#FEFECE" filter="url(#f3gmpy2nkbh2f)" height="36.2969" style="stroke: #A80036; stroke-width: 1.5;" width="235" x="576.5" y="367"/><rect fill="#FEFECE" height="5" style="stroke: #A80036; stroke-width: 1.5;" width="10" x="571.5" y="372"/><rect fill="#FEFECE" height="5" style="stroke: #A80036; stroke-width: 1.5;" width="10" x="571.5" y="393.2969"/><text fill="#000000" font-family="sans-serif" font-size="14" lengthAdjust="spacingAndGlyphs" textLength="215" x="586.5" y="389.9951">CustomStorageImplementation</text><!--entity TopologyWrapper--><rect fill="#FEFECE" filter="url(#f3gmpy2nkbh2f)" height="36.2969" style="stroke: #A80036; stroke-width: 1.5;" width="142" x="359" y="155"/><rect fill="#FEFECE" height="5" style="stroke: #A80036; stroke-width: 1.5;" width="10" x="354" y="160"/><rect fill="#FEFECE" height="5" style="stroke: #A80036; stroke-width: 1.5;" width="10" x="354" y="181.2969"/><text fill="#000000" font-family="sans-serif" font-size="14" lengthAdjust="spacingAndGlyphs" textLength="122" x="369" y="177.9951">TopologyWrapper</text><!--entity LocalTopology--><rect fill="#FEFECE" filter="url(#f3gmpy2nkbh2f)" height="36.2969" style="stroke: #A80036; stroke-width: 1.5;" width="119" x="370.5" y="251"/><rect fill="#FEFECE" height="5" style="stroke: #A80036; stroke-width: 1.5;" width="10" x="365.5" y="256"/><rect fill="#FEFECE" height="5" style="stroke: #A80036; stroke-width: 1.5;" width="10" x="365.5" y="277.2969"/><text fill="#000000" font-family="sans-serif" font-size="14" lengthAdjust="spacingAndGlyphs" textLength="99" x="380.5" y="273.9951">LocalTopology</text><!--entity Worker2--><rect fill="#FEFECE" filter="url(#f3gmpy2nkbh2f)" height="36.2969" style="stroke: #A80036; stroke-width: 1.5;" width="78" x="77" y="367"/><rect fill="#FEFECE" height="5" style="stroke: #A80036; stroke-width: 1.5;" width="10" x="72" y="372"/><rect fill="#FEFECE" height="5" style="stroke: #A80036; stroke-width: 1.5;" width="10" x="72" y="393.2969"/><text fill="#000000" font-family="sans-serif" font-size="14" lengthAdjust="spacingAndGlyphs" textLength="58" x="87" y="389.9951">Worker2</text><!--entity Worker3--><rect fill="#FEFECE" filter="url(#f3gmpy2nkbh2f)" height="36.2969" style="stroke: #A80036; stroke-width: 1.5;" width="78" x="250" y="367"/><rect fill="#FEFECE" height="5" style="stroke: #A80036; stroke-width: 1.5;" width="10" x="245" y="372"/><rect fill="#FEFECE" height="5" style="stroke: #A80036; stroke-width: 1.5;" width="10" x="245" y="393.2969"/><text fill="#000000" font-family="sans-serif" font-size="14" lengthAdjust="spacingAndGlyphs" textLength="58" x="260" y="389.9951">Worker3</text><!--entity Worker4--><rect fill="#FEFECE" filter="url(#f3gmpy2nkbh2f)" height="36.2969" style="stroke: #A80036; stroke-width: 1.5;" width="78" x="384" y="367"/><rect fill="#FEFECE" height="5" style="stroke: #A80036; stroke-width: 1.5;" width="10" x="379" y="372"/><rect fill="#FEFECE" height="5" style="stroke: #A80036; stroke-width: 1.5;" width="10" x="379" y="393.2969"/><text fill="#000000" font-family="sans-serif" font-size="14" lengthAdjust="spacingAndGlyphs" textLength="58" x="394" y="389.9951">Worker4</text><!--entity Storage--><rect fill="#FEFECE" filter="url(#f3gmpy2nkbh2f)" height="36.2969" style="stroke: #A80036; stroke-width: 1.5;" width="74" x="319" y="493"/><rect fill="#FEFECE" height="5" style="stroke: #A80036; stroke-width: 1.5;" width="10" x="314" y="498"/><rect fill="#FEFECE" height="5" style="stroke: #A80036; stroke-width: 1.5;" width="10" x="314" y="519.2969"/><text fill="#000000" font-family="sans-serif" font-size="14" lengthAdjust="spacingAndGlyphs" textLength="54" x="329" y="515.9951">Storage</text><!--link Worker to Coordinator--><path d="M704.389,95.241 C716.532,110.877 734.471,133.977 747.496,150.749 " fill="none" id="Worker-Coordinator" style="stroke: #A80036; stroke-width: 1.0;"/><polygon fill="#A80036" points="750.696,154.868,748.3339,145.3066,747.6288,150.9193,742.016,150.2142,750.696,154.868" style="stroke: #A80036; stroke-width: 1.0;"/><!--link Coordinator to Leader--><path d="M751.161,191.241 C739.517,206.877 722.315,229.977 709.825,246.749 " fill="none" id="Coordinator-Leader" style="stroke: #A80036; stroke-width: 1.0;"/><polygon fill="#A80036" points="706.758,250.868,715.3404,246.0366,709.7434,246.8571,708.9229,241.26,706.758,250.868" style="stroke: #A80036; stroke-width: 1.0;"/><!--link Worker to TopologyProxy--><path d="M677.611,95.241 C666.909,109.022 651.704,128.6 639.329,144.535 " fill="none" id="Worker-TopologyProxy" style="stroke: #A80036; stroke-width: 1.0;"/><polygon fill="#FFFFFF" points="631.304,154.868,638.1435,152.583,638.6648,145.3907,631.8253,147.6758,631.304,154.868" style="stroke: #A80036; stroke-width: 1.0;"/><!--link Coordinator to CustomStorageImplementation--><path d="M764.161,191.088 C763.86,217.662 761.046,270.092 745,311 C737.53,330.043 724.158,348.902 712.981,362.68 " fill="none" id="Coordinator-CustomStorageImplementation" style="stroke: #A80036; stroke-width: 1.0;"/><polygon fill="#A80036" points="709.591,366.788,718.4052,362.3937,712.774,362.9321,712.2357,357.3009,709.591,366.788" style="stroke: #A80036; stroke-width: 1.0;"/><!--link Leader to CustomStorageImplementation--><path d="M694,287.314 C694,307.266 694,340.097 694,361.882 " fill="none" id="Leader-CustomStorageImplementation" style="stroke: #A80036; stroke-width: 1.0;"/><polygon fill="#A80036" points="694,366.896,698,357.896,694,361.896,690,357.896,694,366.896" style="stroke: #A80036; stroke-width: 1.0;"/><!--link TopologyWrapper to LocalTopology--><path d="M430,191.241 C430,206.479 430,228.807 430,245.458 " fill="none" id="TopologyWrapper-LocalTopology" style="stroke: #A80036; stroke-width: 1.0;"/><polygon fill="#A80036" points="430,250.868,434,241.868,430,245.868,426,241.868,430,250.868" style="stroke: #A80036; stroke-width: 1.0;"/><!--link TopologyWrapper to TopologyProxy--><path d="M506.494,173 C523.442,173 540.389,173 557.337,173 " fill="none" id="TopologyWrapper-TopologyProxy" style="stroke: #A80036; stroke-width: 1.0;"/><polygon fill="#A80036" points="501.234,173,510.234,177,506.234,173,510.234,169,501.234,173" style="stroke: #A80036; stroke-width: 1.0;"/><!--link CustomStorageImplementation to Storage--><path d="M647.357,403.111 C581.346,427.329 461.655,471.2389 398.173,494.5284 " fill="none" id="CustomStorageImplementation-Storage" style="stroke: #A80036; stroke-width: 1.0;"/><polygon fill="#A80036" points="393.328,496.3059,403.1549,496.9626,398.0223,494.5844,400.4005,489.4517,393.328,496.3059" style="stroke: #A80036; stroke-width: 1.0;"/><!--link Worker2 to Storage--><path d="M149.119,403.111 C193.377,425.978 271.619,466.4033 318.156,490.4472 " fill="none" id="Worker2-Storage" style="stroke: #A80036; stroke-width: 1.0;"/><polygon fill="#A80036" points="322.836,492.8652,316.6771,485.1797,318.3941,490.5696,313.0041,492.2867,322.836,492.8652" style="stroke: #A80036; stroke-width: 1.0;"/><!--link Worker3 to Storage--><path d="M298.316,403.242 C310.317,425.452 331.183,464.0695 344.257,488.2667 " fill="none" id="Worker3-Storage" style="stroke: #A80036; stroke-width: 1.0;"/><polygon fill="#A80036" points="346.763,492.9048,346.0035,483.0853,344.386,488.506,338.9653,486.8885,346.763,492.9048" style="stroke: #A80036; stroke-width: 1.0;"/><!--link Worker4 to Storage--><path d="M413.684,403.242 C401.683,425.452 380.817,464.0695 367.743,488.2667 " fill="none" id="Worker4-Storage" style="stroke: #A80036; stroke-width: 1.0;"/><polygon fill="#A80036" points="365.237,492.9048,373.0347,486.8885,367.614,488.506,365.9965,483.0853,365.237,492.9048" style="stroke: #A80036; stroke-width: 1.0;"/><!--
@startuml
package "Worker - Main process" {
  [Worker] - -> [Coordinator]
  [Coordinator] - -> [Leader]
  [Worker] - -o [TopologyProxy]
  [Coordinator] - -> [CustomStorageImplementation]
  [Leader] - -> [CustomStorageImplementation]
}

package "Child process" {
  [TopologyWrapper] - -> [LocalTopology]
}

node "Worker 2" {
  [Worker2]
}
node "Worker 3" {
  [Worker3]
}
node "Worker 4" {
  [Worker4]
}


database "Common storage" {
    [Storage]
}

[TopologyProxy] -left-> [TopologyWrapper]
[CustomStorageImplementation] - -> [Storage]
[Worker2] - -> [Storage]
[Worker3] - -> [Storage]
[Worker4] - -> [Storage]
@enduml

PlantUML version 1.2017.20beta1(Unknown compile time)
(GPL source distribution)
Java Runtime: Java(TM) SE Runtime Environment
JVM: Java HotSpot(TM) 64-Bit Server VM
Java Version: 1.7.0_25-b15
Operating System: Linux
Default Encoding: UTF-8
Language: en
Country: US
--></g></svg>