<?xml version="1.0" encoding="UTF-8" standalone="no"?><svg xmlns="http://www.w3.org/2000/svg" xmlns:xlink="http://www.w3.org/1999/xlink" contentScriptType="application/ecmascript" contentStyleType="text/css" height="275px" preserveAspectRatio="none" style="width:414px;height:275px;" version="1.1" viewBox="0 0 414 275" width="414px" zoomAndPan="magnify"><defs><filter height="300%" id="fbvxb9e" width="300%" x="-1" y="-1"><feGaussianBlur result="blurOut" stdDeviation="2.0"/><feColorMatrix in="blurOut" result="blurOut2" type="matrix" values="0 0 0 0 0 0 0 0 0 0 0 0 0 0 0 0 0 0 .4 0"/><feOffset dx="4.0" dy="4.0" in="blurOut2" result="blurOut3"/><feBlend in="SourceGraphic" in2="blurOut3" mode="normal"/></filter></defs><g><ellipse cx="59.5" cy="18" fill="#000000" filter="url(#fbvxb9e)" rx="10" ry="10" style="stroke: none; stroke-width: 1.0;"/><rect fill="#FEFECE" filter="url(#fbvxb9e)" height="50" rx="12.5" ry="12.5" style="stroke: #A80036; stroke-width: 1.5;" width="101" x="9" y="89"/><line style="stroke: #A80036; stroke-width: 1.5;" x1="9" x2="110" y1="115.2969" y2="115.2969"/><text fill="#000000" font-family="sans-serif" font-size="14" lengthAdjust="spacingAndGlyphs" textLength="81" x="19" y="106.9951">unassigned</text><rect fill="#FEFECE" filter="url(#fbvxb9e)" height="50" rx="12.5" ry="12.5" style="stroke: #A80036; stroke-width: 1.5;" width="68" x="269.5" y="89"/><line style="stroke: #A80036; stroke-width: 1.5;" x1="269.5" x2="337.5" y1="115.2969" y2="115.2969"/><text fill="#000000" font-family="sans-serif" font-size="14" lengthAdjust="spacingAndGlyphs" textLength="48" x="279.5" y="106.9951">waiting</text><rect fill="#FEFECE" filter="url(#fbvxb9e)" height="50" rx="12.5" ry="12.5" style="stroke: #A80036; stroke-width: 1.5;" width="73" x="157" y="216"/><line style="stroke: #A80036; stroke-width: 1.5;" x1="157" x2="230" y1="242.2969" y2="242.2969"/><text fill="#000000" font-family="sans-serif" font-size="14" lengthAdjust="spacingAndGlyphs" textLength="53" x="167" y="233.9951">running</text><rect fill="#FEFECE" filter="url(#fbvxb9e)" height="50" rx="12.5" ry="12.5" style="stroke: #A80036; stroke-width: 1.5;" width="78" x="327.5" y="216"/><line style="stroke: #A80036; stroke-width: 1.5;" x1="327.5" x2="405.5" y1="242.2969" y2="242.2969"/><text fill="#000000" font-family="sans-serif" font-size="14" lengthAdjust="spacingAndGlyphs" textLength="58" x="337.5" y="233.9951">stopped</text><rect fill="#FEFECE" filter="url(#fbvxb9e)" height="50" rx="12.5" ry="12.5" style="stroke: #A80036; stroke-width: 1.5;" width="53" x="6" y="216"/><line style="stroke: #A80036; stroke-width: 1.5;" x1="6" x2="59" y1="242.2969" y2="242.2969"/><text fill="#000000" font-family="sans-serif" font-size="14" lengthAdjust="spacingAndGlyphs" textLength="33" x="16" y="233.9951">error</text><path d="M59.5,28.013 C59.5,40.698 59.5,64.409 59.5,83.57 " fill="none" style="stroke: #A80036; stroke-width: 1.0;"/><polygon fill="#A80036" points="59.5,88.84,63.5,79.84,59.5,83.84,55.5,79.84,59.5,88.84" style="stroke: #A80036; stroke-width: 1.0;"/><path d="M110.209,126.184 C125.839,129.393 143.168,132.404 159.25,134 C186.229,136.678 193.327,137.189 220.25,134 C234.843,132.272 250.58,128.896 264.401,125.402 " fill="none" style="stroke: #A80036; stroke-width: 1.0;"/><polygon fill="#A80036" points="269.401,124.113,259.6873,122.4872,264.5594,125.3616,261.685,130.2338,269.401,124.113" style="stroke: #A80036; stroke-width: 1.0;"/><text fill="#000000" font-family="sans-serif" font-size="13" lengthAdjust="spacingAndGlyphs" textLength="59" x="160.25" y="130.0669">by leader</text><path d="M115.173,114 C162.702,114 229.525,114 269.473,114 " fill="none" style="stroke: #A80036; stroke-width: 1.0;"/><polygon fill="#A80036" points="110.057,114,119.057,118,115.057,114,119.057,110,110.057,114" style="stroke: #A80036; stroke-width: 1.0;"/><text fill="#000000" font-family="sans-serif" font-size="13" lengthAdjust="spacingAndGlyphs" textLength="123" x="128.25" y="107.0669">by leader (timeout)</text><path d="M282.291,139.101 C263.954,159.939 237.435,190.0742 218.156,211.9819 " fill="none" style="stroke: #A80036; stroke-width: 1.0;"/><polygon fill="#A80036" points="214.644,215.9727,223.5922,211.8581,217.9469,212.2189,217.5861,206.5736,214.644,215.9727" style="stroke: #A80036; stroke-width: 1.0;"/><text fill="#000000" font-family="sans-serif" font-size="13" lengthAdjust="spacingAndGlyphs" textLength="61" x="256.5" y="182.0669">by worker</text><path d="M230.189,241 C257.08,241 293.715,241 322.233,241 " fill="none" style="stroke: #A80036; stroke-width: 1.0;"/><polygon fill="#A80036" points="327.46,241,318.46,237,322.46,241,318.46,245,327.46,241" style="stroke: #A80036; stroke-width: 1.0;"/><text fill="#000000" font-family="sans-serif" font-size="13" lengthAdjust="spacingAndGlyphs" textLength="61" x="248.25" y="234.0669">by worker</text><path d="M89.0355,142.552 C112.588,164.522 145.243,194.9843 167.743,215.9727 " fill="none" style="stroke: #A80036; stroke-width: 1.0;"/><polygon fill="#A80036" points="85.3365,139.101,89.1902,148.1646,88.9931,142.5112,94.6465,142.3141,85.3365,139.101" style="stroke: #A80036; stroke-width: 1.0;"/><text fill="#000000" font-family="sans-serif" font-size="13" lengthAdjust="spacingAndGlyphs" textLength="59" x="136.5" y="182.0669">by leader</text><path d="M317.936,143.644 C328.963,165.523 343.986,195.3298 354.39,215.9727 " fill="none" style="stroke: #A80036; stroke-width: 1.0;"/><polygon fill="#A80036" points="315.647,139.101,316.1256,148.9382,317.8973,143.566,323.2696,145.3377,315.647,139.101" style="stroke: #A80036; stroke-width: 1.0;"/><text fill="#000000" font-family="sans-serif" font-size="13" lengthAdjust="spacingAndGlyphs" textLength="59" x="340.5" y="182.0669">by leader</text><path d="M64.2583,241 C90.9148,241 129.007,241 156.932,241 " fill="none" style="stroke: #A80036; stroke-width: 1.0;"/><polygon fill="#A80036" points="59.0859,241,68.0859,245,64.0859,241,68.0859,237,59.0859,241" style="stroke: #A80036; stroke-width: 1.0;"/><text fill="#000000" font-family="sans-serif" font-size="13" lengthAdjust="spacingAndGlyphs" textLength="61" x="77.5" y="234.0669">by worker</text><path d="M53.194,144.194 C48.4795,166.0209 42.1114,195.5026 37.6899,215.9727 " fill="none" style="stroke: #A80036; stroke-width: 1.0;"/><polygon fill="#A80036" points="54.2941,139.101,48.484,147.0536,53.2384,143.9883,56.3037,148.7427,54.2941,139.101" style="stroke: #A80036; stroke-width: 1.0;"/><text fill="#000000" font-family="sans-serif" font-size="13" lengthAdjust="spacingAndGlyphs" textLength="48" x="49.5" y="182.0669">manual</text><!--
@startuml
[*] -down-> unassigned
unassigned -right-> waiting : by leader
waiting - -> running: by worker
waiting -left-> unassigned : by leader (timeout)
running -right-> stopped: by worker
running -up-> unassigned: by leader
stopped -up-> waiting : by leader
running -left-> error: by worker
error -up-> unassigned: manual
@enduml

PlantUML version 2017.09(Wed Apr 05 16:07:11 UTC 2017)
(GPL source distribution)
Java Runtime: Java(TM) SE Runtime Environment
JVM: Java HotSpot(TM) 64-Bit Server VM
Java Version: 1.7.0_25-b15
Operating System: Linux
Default Encoding: UTF-8
Language: en
Country: US
--></g></svg>