<?xml version="1.0" encoding="UTF-8" standalone="no"?><svg xmlns="http://www.w3.org/2000/svg" xmlns:xlink="http://www.w3.org/1999/xlink" contentScriptType="application/ecmascript" contentStyleType="text/css" height="570px" preserveAspectRatio="none" style="width:810px;height:570px;" version="1.1" viewBox="0 0 810 570" width="810px" zoomAndPan="magnify"><defs><filter height="300%" id="f3gmpy2nkbh2f" width="300%" x="-1" y="-1"><feGaussianBlur result="blurOut" stdDeviation="2.0"/><feColorMatrix in="blurOut" result="blurOut2" type="matrix" values="0 0 0 0 0 0 0 0 0 0 0 0 0 0 0 0 0 0 .4 0"/><feOffset dx="4.0" dy="4.0" in="blurOut2" result="blurOut3"/><feBlend in="SourceGraphic" in2="blurOut3" mode="normal"/></filter></defs><g><!--cluster Worker - Main process--><polygon fill="#FFFFFF" filter="url(#f3gmpy2nkbh2f)" points="511,24,676,24,683,47.6094,788,47.6094,788,429,511,429,511,24" style="stroke: #000000; stroke-width: 1.5;"/><line style="stroke: #000000; stroke-width: 1.5;" x1="511" x2="683" y1="47.6094" y2="47.6094"/><text fill="#000000" font-family="sans-serif" font-size="14" font-weight="bold" lengthAdjust="spacingAndGlyphs" textLength="159" x="515" y="40.5332">Worker - Main process</text><!--cluster Child process--><polygon fill="#FFFFFF" filter="url(#f3gmpy2nkbh2f)" points="321,122,424,122,431,145.6094,487,145.6094,487,310,321,310,321,122" style="stroke: #000000; stroke-width: 1.5;"/><line style="stroke: #000000; stroke-width: 1.5;" x1="321" x2="431" y1="145.6094" y2="145.6094"/><text fill="#000000" font-family="sans-serif" font-size="14" font-weight="bold" lengthAdjust="spacingAndGlyphs" textLength="97" x="325" y="138.5332">Child process</text><!--cluster Worker 2--><polygon fill="#FFFFFF" filter="url(#f3gmpy2nkbh2f)" points="22,344,32,334,161,334,161,419,151,429,22,429,22,344" style="stroke: #000000; stroke-width: 1.5;"/><line style="stroke: #000000; stroke-width: 1.5;" x1="151" x2="160" y1="344" y2="335"/><line style="stroke: #000000; stroke-width: 1.5;" x1="22" x2="151" y1="344" y2="344"/><line style="stroke: #000000; stroke-width: 1.5;" x1="151" x2="151" y1="344" y2="429"/><text fill="#000000" font-family="sans-serif" font-size="14" font-weight="bold" lengthAdjust="spacingAndGlyphs" textLength="63" x="56" y="361.5332">Worker 2</text><!--cluster Worker 3--><polygon fill="#FFFFFF" filter="url(#f3gmpy2nkbh2f)" points="185,344,195,334,324,334,324,419,314,429,185,429,185,344" style="stroke: #000000; stroke-width: 1.5;"/><line style="stroke: #000000; stroke-width: 1.5;" x1="314" x2="323" y1="344" y2="335"/><line style="stroke: #000000; stroke-width: 1.5;" x1="185" x2="314" y1="344" y2="344"/><line style="stroke: #000000; stroke-width: 1.5;" x1="314" x2="314" y1="344" y2="429"/><text fill="#000000" font-family="sans-serif" font-size="14" font-weight="bold" lengthAdjust="spacingAndGlyphs" textLength="63" x="219" y="361.5332">Worker 3</text><!--cluster Worker 4--><polygon fill="#FFFFFF" filter="url(#f3gmpy2nkbh2f)" points="348,344,358,334,487,334,487,419,477,429,348,429,348,344" style="stroke: #000000; stroke-width: 1.5;"/><line style="stroke: #000000; stroke-width: 1.5;" x1="477" x2="486" y1="344" y2="335"/><line style="stroke: #000000; stroke-width: 1.5;" x1="348" x2="477" y1="344" y2="344"/><line style="stroke: #000000; stroke-width: 1.5;" x1="477" x2="477" y1="344" y2="429"/><text fill="#000000" font-family="sans-serif" font-size="14" font-weight="bold" lengthAdjust="spacingAndGlyphs" textLength="63" x="382" y="361.5332">Worker 4</text><!--cluster Common storage--><path d="M269,463 C269,453 336.5,453 336.5,453 C336.5,453 404,453 404,463 L404,548 C404,558 336.5,558 336.5,558 C336.5,558 269,558 269,548 L269,463 " fill="#FFFFFF" filter="url(#f3gmpy2nkbh2f)" style="stroke: #000000; stroke-width: 1.5;"/><path d="M269,463 C269,473 336.5,473 336.5,473 C336.5,473 404,473 404,463 " fill="none" style="stroke: #000000; stroke-width: 1.5;"/><text fill="#000000" font-family="sans-serif" font-size="14" font-weight="bold" lengthAdjust="spacingAndGlyphs" textLength="119" x="277" y="489.5332">Common storage</text><!--entity Worker--><rect fill="#FEFECE" filter="url(#f3gmpy2nkbh2f)" height="37.6094" style="stroke: #A80036; stroke-width: 1.5;" width="66" x="621" y="60"/><rect fill="#FEFECE" height="5" style="stroke: #A80036; stroke-width: 1.5;" width="10" x="616" y="65"/><rect fill="#FEFECE" height="5" style="stroke: #A80036; stroke-width: 1.5;" width="10" x="616" y="87.6094"/><text fill="#000000" font-family="sans-serif" font-size="14" lengthAdjust="spacingAndGlyphs" textLength="46" x="631" y="84.5332">Worker</text><!--entity Coordinator--><rect fill="#FEFECE" filter="url(#f3gmpy2nkbh2f)" height="37.6094" style="stroke: #A80036; stroke-width: 1.5;" width="95" x="676.5" y="158"/><rect fill="#FEFECE" height="5" style="stroke: #A80036; stroke-width: 1.5;" width="10" x="671.5" y="163"/><rect fill="#FEFECE" height="5" style="stroke: #A80036; stroke-width: 1.5;" width="10" x="671.5" y="185.6094"/><text fill="#000000" font-family="sans-serif" font-size="14" lengthAdjust="spacingAndGlyphs" textLength="75" x="686.5" y="182.5332">Coordinator</text><!--entity Leader--><rect fill="#FEFECE" filter="url(#f3gmpy2nkbh2f)" height="37.6094" style="stroke: #A80036; stroke-width: 1.5;" width="65" x="622.5" y="256"/><rect fill="#FEFECE" height="5" style="stroke: #A80036; stroke-width: 1.5;" width="10" x="617.5" y="261"/><rect fill="#FEFECE" height="5" style="stroke: #A80036; stroke-width: 1.5;" width="10" x="617.5" y="283.6094"/><text fill="#000000" font-family="sans-serif" font-size="14" lengthAdjust="spacingAndGlyphs" textLength="45" x="632.5" y="280.5332">Leader</text><!--entity TopologyProxy--><rect fill="#FEFECE" filter="url(#f3gmpy2nkbh2f)" height="37.6094" style="stroke: #A80036; stroke-width: 1.5;" width="114" x="527" y="158"/><rect fill="#FEFECE" height="5" style="stroke: #A80036; stroke-width: 1.5;" width="10" x="522" y="163"/><rect fill="#FEFECE" height="5" style="stroke: #A80036; stroke-width: 1.5;" width="10" x="522" y="185.6094"/><text fill="#000000" font-family="sans-serif" font-size="14" lengthAdjust="spacingAndGlyphs" textLength="94" x="537" y="182.5332">TopologyProxy</text><!--entity CustomStorageImplementation--><rect fill="#FEFECE" filter="url(#f3gmpy2nkbh2f)" height="37.6094" style="stroke: #A80036; stroke-width: 1.5;" width="213" x="548.5" y="375"/><rect fill="#FEFECE" height="5" style="stroke: #A80036; stroke-width: 1.5;" width="10" x="543.5" y="380"/><rect fill="#FEFECE" height="5" style="stroke: #A80036; stroke-width: 1.5;" width="10" x="543.5" y="402.6094"/><text fill="#000000" font-family="sans-serif" font-size="14" lengthAdjust="spacingAndGlyphs" textLength="193" x="558.5" y="399.5332">CustomStorageImplementation</text><!--entity TopologyWrapper--><rect fill="#FEFECE" filter="url(#f3gmpy2nkbh2f)" height="37.6094" style="stroke: #A80036; stroke-width: 1.5;" width="134" x="337" y="158"/><rect fill="#FEFECE" height="5" style="stroke: #A80036; stroke-width: 1.5;" width="10" x="332" y="163"/><rect fill="#FEFECE" height="5" style="stroke: #A80036; stroke-width: 1.5;" width="10" x="332" y="185.6094"/><text fill="#000000" font-family="sans-serif" font-size="14" lengthAdjust="spacingAndGlyphs" textLength="114" x="347" y="182.5332">TopologyWrapper</text><!--entity LocalTopology--><rect fill="#FEFECE" filter="url(#f3gmpy2nkbh2f)" height="37.6094" style="stroke: #A80036; stroke-width: 1.5;" width="113" x="347.5" y="256"/><rect fill="#FEFECE" height="5" style="stroke: #A80036; stroke-width: 1.5;" width="10" x="342.5" y="261"/><rect fill="#FEFECE" height="5" style="stroke: #A80036; stroke-width: 1.5;" width="10" x="342.5" y="283.6094"/><text fill="#000000" font-family="sans-serif" font-size="14" lengthAdjust="spacingAndGlyphs" textLength="93" x="357.5" y="280.5332">LocalTopology</text><!--entity Worker2--><rect fill="#FEFECE" filter="url(#f3gmpy2nkbh2f)" height="37.6094" style="stroke: #A80036; stroke-width: 1.5;" width="74" x="71" y="375"/><rect fill="#FEFECE" height="5" style="stroke: #A80036; stroke-width: 1.5;" width="10" x="66" y="380"/><rect fill="#FEFECE" height="5" style="stroke: #A80036; stroke-width: 1.5;" width="10" x="66" y="402.6094"/><text fill="#000000" font-family="sans-serif" font-size="14" lengthAdjust="spacingAndGlyphs" textLength="54" x="81" y="399.5332">Worker2</text><!--entity Worker3--><rect fill="#FEFECE" filter="url(#f3gmpy2nkbh2f)" height="37.6094" style="stroke: #A80036; stroke-width: 1.5;" width="74" x="234" y="375"/><rect fill="#FEFECE" height="5" style="stroke: #A80036; stroke-width: 1.5;" width="10" x="229" y="380"/><rect fill="#FEFECE" height="5" style="stroke: #A80036; stroke-width: 1.5;" width="10" x="229" y="402.6094"/><text fill="#000000" font-family="sans-serif" font-size="14" lengthAdjust="spacingAndGlyphs" textLength="54" x="244" y="399.5332">Worker3</text><!--entity Worker4--><rect fill="#FEFECE" filter="url(#f3gmpy2nkbh2f)" height="37.6094" style="stroke: #A80036; stroke-width: 1.5;" width="74" x="364" y="375"/><rect fill="#FEFECE" height="5" style="stroke: #A80036; stroke-width: 1.5;" width="10" x="359" y="380"/><rect fill="#FEFECE" height="5" style="stroke: #A80036; stroke-width: 1.5;" width="10" x="359" y="402.6094"/><text fill="#000000" font-family="sans-serif" font-size="14" lengthAdjust="spacingAndGlyphs" textLength="54" x="374" y="399.5332">Worker4</text><!--entity Storage--><rect fill="#FEFECE" filter="url(#f3gmpy2nkbh2f)" height="37.6094" style="stroke: #A80036; stroke-width: 1.5;" width="70" x="301" y="504"/><rect fill="#FEFECE" height="5" style="stroke: #A80036; stroke-width: 1.5;" width="10" x="296" y="509"/><rect fill="#FEFECE" height="5" style="stroke: #A80036; stroke-width: 1.5;" width="10" x="296" y="531.6094"/><text fill="#000000" font-family="sans-serif" font-size="14" lengthAdjust="spacingAndGlyphs" textLength="50" x="311" y="528.5332">Storage</text><!--link Worker to Coordinator--><path d="M667.166,98.057 C678.631,113.779 695.298,136.638 707.621,153.537 " fill="none" id="Worker-Coordinator" style="stroke: #A80036; stroke-width: 1.0;"/><polygon fill="#A80036" points="710.655,157.698,708.5847,148.0692,707.7092,153.6579,702.1205,152.7825,710.655,157.698" style="stroke: #A80036; stroke-width: 1.0;"/><!--link Coordinator to Leader--><path d="M711.022,196.057 C699.721,211.779 683.292,234.638 671.145,251.537 " fill="none" id="Coordinator-Leader" style="stroke: #A80036; stroke-width: 1.0;"/><polygon fill="#A80036" points="668.155,255.698,676.6561,250.725,671.0735,251.6381,670.1604,246.0555,668.155,255.698" style="stroke: #A80036; stroke-width: 1.0;"/><!--link Worker to TopologyProxy--><path d="M640.834,98.057 C630.827,111.781 616.855,130.941 605.269,146.831 " fill="none" id="Worker-TopologyProxy" style="stroke: #A80036; stroke-width: 1.0;"/><polygon fill="#FFFFFF" points="597.345,157.698,604.1119,155.2063,604.4146,148.0016,597.6476,150.4933,597.345,157.698" style="stroke: #A80036; stroke-width: 1.0;"/><!--link Coordinator to CustomStorageImplementation--><path d="M724.106,196.315 C723.697,223.682 720.7,276.472 705,318 C697.728,337.235 684.747,356.485 673.835,370.665 " fill="none" id="Coordinator-CustomStorageImplementation" style="stroke: #A80036; stroke-width: 1.0;"/><polygon fill="#A80036" points="670.523,374.898,679.2189,370.274,673.6038,370.9599,672.9179,365.3448,670.523,374.898" style="stroke: #A80036; stroke-width: 1.0;"/><!--link Leader to CustomStorageImplementation--><path d="M655,294.025 C655,314.32 655,347.364 655,369.627 " fill="none" id="Leader-CustomStorageImplementation" style="stroke: #A80036; stroke-width: 1.0;"/><polygon fill="#A80036" points="655,374.762,659,365.762,655,369.762,651,365.762,655,374.762" style="stroke: #A80036; stroke-width: 1.0;"/><!--link TopologyWrapper to LocalTopology--><path d="M404,196.057 C404,211.513 404,233.865 404,250.673 " fill="none" id="TopologyWrapper-LocalTopology" style="stroke: #A80036; stroke-width: 1.0;"/><polygon fill="#A80036" points="404,255.698,408,246.698,404,250.698,400,246.698,404,255.698" style="stroke: #A80036; stroke-width: 1.0;"/><!--link TopologyWrapper to TopologyProxy--><path d="M476.356,177 C493.135,177 509.914,177 526.693,177 " fill="none" id="TopologyWrapper-TopologyProxy" style="stroke: #A80036; stroke-width: 1.0;"/><polygon fill="#A80036" points="471.148,177,480.148,181,476.148,177,480.148,173,471.148,177" style="stroke: #A80036; stroke-width: 1.0;"/><!--link CustomStorageImplementation to Storage--><path d="M609.634,413.061 C547.228,437.906 435.869,482.2401 376.268,505.9685 " fill="none" id="CustomStorageImplementation-Storage" style="stroke: #A80036; stroke-width: 1.0;"/><polygon fill="#A80036" points="371.366,507.92,381.2073,508.3063,376.0112,506.0701,378.2474,500.874,371.366,507.92" style="stroke: #A80036; stroke-width: 1.0;"/><!--link Worker2 to Storage--><path d="M140.667,413.196 C182.57,436.537 255.066,476.9183 298.974,501.3756 " fill="none" id="Worker2-Storage" style="stroke: #A80036; stroke-width: 1.0;"/><polygon fill="#A80036" points="303.394,503.8378,297.4777,495.964,299.0258,501.4049,293.585,502.953,303.394,503.8378" style="stroke: #A80036; stroke-width: 1.0;"/><!--link Worker3 to Storage--><path d="M280.313,413.196 C291.897,435.83 311.682,474.4866 324.284,499.1093 " fill="none" id="Worker3-Storage" style="stroke: #A80036; stroke-width: 1.0;"/><polygon fill="#A80036" points="326.704,503.8378,326.1645,494.0037,324.4261,499.3868,319.043,497.6484,326.704,503.8378" style="stroke: #A80036; stroke-width: 1.0;"/><!--link Worker4 to Storage--><path d="M391.687,413.196 C380.103,435.83 360.318,474.4866 347.716,499.1093 " fill="none" id="Worker4-Storage" style="stroke: #A80036; stroke-width: 1.0;"/><polygon fill="#A80036" points="345.296,503.8378,352.957,497.6484,347.5739,499.3868,345.8355,494.0037,345.296,503.8378" style="stroke: #A80036; stroke-width: 1.0;"/><!--
@startuml
package "Worker - Main process" {
  [Worker] - -> [Coordinator]
  [Coordinator] - -> [Leader]
  [Worker] - -o [TopologyProxy]
  [Coordinator] - -> [CustomStorageImplementation]
  [Leader] - -> [CustomStorageImplementation]
}

package "Child process" {
  [TopologyWrapper] - -> [LocalTopology]
}

node "Worker 2" {
  [Worker2]
}
node "Worker 3" {
  [Worker3]
}
node "Worker 4" {
  [Worker4]
}


database "Common storage" {
    [Storage]
}

[TopologyProxy] -left-> [TopologyWrapper]
[CustomStorageImplementation] - -> [Storage]
[Worker2] - -> [Storage]
[Worker3] - -> [Storage]
[Worker4] - -> [Storage]
@enduml

PlantUML version 1.2018.14(Fri Dec 21 17:33:16 CET 2018)
(GPL source distribution)
Java Runtime: Java(TM) SE Runtime Environment
JVM: Java HotSpot(TM) 64-Bit Server VM
Java Version: 1.8.0_151-b12
Operating System: Windows 10
OS Version: 10.0
Default Encoding: Cp1252
Language: en
Country: US
--></g></svg>