<?xml version="1.0" encoding="UTF-8" standalone="no"?><svg xmlns="http://www.w3.org/2000/svg" xmlns:xlink="http://www.w3.org/1999/xlink" contentScriptType="application/ecmascript" contentStyleType="text/css" height="660px" preserveAspectRatio="none" style="width:591px;height:660px;" version="1.1" viewBox="0 0 591 660" width="591px" zoomAndPan="magnify"><defs><filter height="300%" id="fj2wddjnk5pbr" width="300%" x="-1" y="-1"><feGaussianBlur result="blurOut" stdDeviation="2.0"/><feColorMatrix in="blurOut" result="blurOut2" type="matrix" values="0 0 0 0 0 0 0 0 0 0 0 0 0 0 0 0 0 0 .4 0"/><feOffset dx="4.0" dy="4.0" in="blurOut2" result="blurOut3"/><feBlend in="SourceGraphic" in2="blurOut3" mode="normal"/></filter></defs><g><rect fill="#FFFFFF" filter="url(#fj2wddjnk5pbr)" height="550.9219" style="stroke: #A80036; stroke-width: 1.0;" width="10" x="35" y="49.6094"/><rect fill="#FFFFFF" filter="url(#fj2wddjnk5pbr)" height="73.7031" style="stroke: #A80036; stroke-width: 1.0;" width="10" x="380" y="71.9609"/><rect fill="#FFFFFF" filter="url(#fj2wddjnk5pbr)" height="161.4063" style="stroke: #A80036; stroke-width: 1.0;" width="10" x="380" y="176.0156"/><rect fill="#FFFFFF" filter="url(#fj2wddjnk5pbr)" height="232.7578" style="stroke: #A80036; stroke-width: 1.0;" width="10" x="380" y="367.7734"/><line style="stroke: #A80036; stroke-width: 1.0; stroke-dasharray: 5.0,5.0;" x1="40" x2="40" y1="39.6094" y2="618.5313"/><line style="stroke: #A80036; stroke-width: 1.0; stroke-dasharray: 5.0,5.0;" x1="385" x2="385" y1="39.6094" y2="618.5313"/><rect fill="#FEFECE" filter="url(#fj2wddjnk5pbr)" height="31.6094" style="stroke: #A80036; stroke-width: 1.5;" width="60" x="8" y="3"/><text fill="#000000" font-family="sans-serif" font-size="14" lengthAdjust="spacingAndGlyphs" textLength="46" x="15" y="24.5332">Worker</text><rect fill="#FEFECE" filter="url(#fj2wddjnk5pbr)" height="31.6094" style="stroke: #A80036; stroke-width: 1.5;" width="60" x="8" y="617.5313"/><text fill="#000000" font-family="sans-serif" font-size="14" lengthAdjust="spacingAndGlyphs" textLength="46" x="15" y="639.0645">Worker</text><rect fill="#FEFECE" filter="url(#fj2wddjnk5pbr)" height="31.6094" style="stroke: #A80036; stroke-width: 1.5;" width="64" x="351" y="3"/><text fill="#000000" font-family="sans-serif" font-size="14" lengthAdjust="spacingAndGlyphs" textLength="50" x="358" y="24.5332">Storage</text><rect fill="#FEFECE" filter="url(#fj2wddjnk5pbr)" height="31.6094" style="stroke: #A80036; stroke-width: 1.5;" width="64" x="351" y="617.5313"/><text fill="#000000" font-family="sans-serif" font-size="14" lengthAdjust="spacingAndGlyphs" textLength="50" x="358" y="639.0645">Storage</text><rect fill="#FFFFFF" filter="url(#fj2wddjnk5pbr)" height="550.9219" style="stroke: #A80036; stroke-width: 1.0;" width="10" x="35" y="49.6094"/><rect fill="#FFFFFF" filter="url(#fj2wddjnk5pbr)" height="73.7031" style="stroke: #A80036; stroke-width: 1.0;" width="10" x="380" y="71.9609"/><rect fill="#FFFFFF" filter="url(#fj2wddjnk5pbr)" height="161.4063" style="stroke: #A80036; stroke-width: 1.0;" width="10" x="380" y="176.0156"/><rect fill="#FFFFFF" filter="url(#fj2wddjnk5pbr)" height="232.7578" style="stroke: #A80036; stroke-width: 1.0;" width="10" x="380" y="367.7734"/><polygon fill="#A80036" points="368,67.9609,378,71.9609,368,75.9609,372,71.9609" style="stroke: #A80036; stroke-width: 1.0;"/><line style="stroke: #A80036; stroke-width: 1.0;" x1="45" x2="374" y1="71.9609" y2="71.9609"/><text fill="#000000" font-family="sans-serif" font-size="13" lengthAdjust="spacingAndGlyphs" textLength="136" x="52" y="67.1045">checkLeadershipStatus</text><line style="stroke: #A80036; stroke-width: 1.0;" x1="390" x2="432" y1="118.6641" y2="118.6641"/><line style="stroke: #A80036; stroke-width: 1.0;" x1="432" x2="432" y1="118.6641" y2="131.6641"/><line style="stroke: #A80036; stroke-width: 1.0;" x1="391" x2="432" y1="131.6641" y2="131.6641"/><polygon fill="#A80036" points="401,127.6641,391,131.6641,401,135.6641,397,131.6641" style="stroke: #A80036; stroke-width: 1.0;"/><text fill="#000000" font-family="sans-serif" font-size="13" lengthAdjust="spacingAndGlyphs" textLength="182" x="397" y="97.4561">check current leadership status</text><text fill="#000000" font-family="sans-serif" font-size="13" lengthAdjust="spacingAndGlyphs" textLength="139" x="397" y="113.8076">Disable leader if timeout</text><polygon fill="#A80036" points="56,141.6641,46,145.6641,56,149.6641,52,145.6641" style="stroke: #A80036; stroke-width: 1.0;"/><line style="stroke: #A80036; stroke-width: 1.0; stroke-dasharray: 2.0,2.0;" x1="50" x2="384" y1="145.6641" y2="145.6641"/><polygon fill="#A80036" points="368,172.0156,378,176.0156,368,180.0156,372,176.0156" style="stroke: #A80036; stroke-width: 1.0;"/><line style="stroke: #A80036; stroke-width: 1.0;" x1="45" x2="374" y1="176.0156" y2="176.0156"/><text fill="#000000" font-family="sans-serif" font-size="13" lengthAdjust="spacingAndGlyphs" textLength="227" x="52" y="171.1592">(if no leader) sendLeadershipCandidacy</text><line style="stroke: #A80036; stroke-width: 1.0;" x1="390" x2="432" y1="206.3672" y2="206.3672"/><line style="stroke: #A80036; stroke-width: 1.0;" x1="432" x2="432" y1="206.3672" y2="219.3672"/><line style="stroke: #A80036; stroke-width: 1.0;" x1="391" x2="432" y1="219.3672" y2="219.3672"/><polygon fill="#A80036" points="401,215.3672,391,219.3672,401,223.3672,397,219.3672" style="stroke: #A80036; stroke-width: 1.0;"/><text fill="#000000" font-family="sans-serif" font-size="13" lengthAdjust="spacingAndGlyphs" textLength="116" x="397" y="201.5107">mark new candidate</text><polygon fill="#A80036" points="56,229.3672,46,233.3672,56,237.3672,52,233.3672" style="stroke: #A80036; stroke-width: 1.0;"/><line style="stroke: #A80036; stroke-width: 1.0; stroke-dasharray: 2.0,2.0;" x1="50" x2="379" y1="233.3672" y2="233.3672"/><polygon fill="#A80036" points="368,259.7188,378,263.7188,368,267.7188,372,263.7188" style="stroke: #A80036; stroke-width: 1.0;"/><line style="stroke: #A80036; stroke-width: 1.0;" x1="45" x2="374" y1="263.7188" y2="263.7188"/><text fill="#000000" font-family="sans-serif" font-size="13" lengthAdjust="spacingAndGlyphs" textLength="96" x="52" y="258.8623">checkCandidacy</text><line style="stroke: #A80036; stroke-width: 1.0;" x1="390" x2="432" y1="294.0703" y2="294.0703"/><line style="stroke: #A80036; stroke-width: 1.0;" x1="432" x2="432" y1="294.0703" y2="307.0703"/><line style="stroke: #A80036; stroke-width: 1.0;" x1="391" x2="432" y1="307.0703" y2="307.0703"/><polygon fill="#A80036" points="401,303.0703,391,307.0703,401,311.0703,397,307.0703" style="stroke: #A80036; stroke-width: 1.0;"/><text fill="#000000" font-family="sans-serif" font-size="13" lengthAdjust="spacingAndGlyphs" textLength="158" x="397" y="289.2139">mark new leader if success</text><polygon fill="#A80036" points="56,333.4219,46,337.4219,56,341.4219,52,337.4219" style="stroke: #A80036; stroke-width: 1.0;"/><line style="stroke: #A80036; stroke-width: 1.0; stroke-dasharray: 2.0,2.0;" x1="50" x2="384" y1="337.4219" y2="337.4219"/><text fill="#000000" font-family="sans-serif" font-size="13" lengthAdjust="spacingAndGlyphs" textLength="205" x="62" y="332.5654">status if candidacy was successfull</text><polygon fill="#A80036" points="368,363.7734,378,367.7734,368,371.7734,372,367.7734" style="stroke: #A80036; stroke-width: 1.0;"/><line style="stroke: #A80036; stroke-width: 1.0;" x1="45" x2="374" y1="367.7734" y2="367.7734"/><text fill="#000000" font-family="sans-serif" font-size="13" lengthAdjust="spacingAndGlyphs" textLength="169" x="52" y="362.917">(if leader) getWorkerStatuses</text><line style="stroke: #A80036; stroke-width: 1.0;" x1="390" x2="432" y1="398.125" y2="398.125"/><line style="stroke: #A80036; stroke-width: 1.0;" x1="432" x2="432" y1="398.125" y2="411.125"/><line style="stroke: #A80036; stroke-width: 1.0;" x1="391" x2="432" y1="411.125" y2="411.125"/><polygon fill="#A80036" points="401,407.125,391,411.125,401,415.125,397,411.125" style="stroke: #A80036; stroke-width: 1.0;"/><text fill="#000000" font-family="sans-serif" font-size="13" lengthAdjust="spacingAndGlyphs" textLength="134" x="397" y="393.2686">collect worker statuses</text><polygon fill="#A80036" points="56,421.125,46,425.125,56,429.125,52,425.125" style="stroke: #A80036; stroke-width: 1.0;"/><line style="stroke: #A80036; stroke-width: 1.0; stroke-dasharray: 2.0,2.0;" x1="50" x2="379" y1="425.125" y2="425.125"/><polygon fill="#A80036" points="368,451.4766,378,455.4766,368,459.4766,372,455.4766" style="stroke: #A80036; stroke-width: 1.0;"/><line style="stroke: #A80036; stroke-width: 1.0;" x1="45" x2="374" y1="455.4766" y2="455.4766"/><text fill="#000000" font-family="sans-serif" font-size="13" lengthAdjust="spacingAndGlyphs" textLength="311" x="52" y="450.6201">setTopologyStatus (to unassigned if worker timed out)</text><line style="stroke: #A80036; stroke-width: 1.0;" x1="390" x2="432" y1="485.8281" y2="485.8281"/><line style="stroke: #A80036; stroke-width: 1.0;" x1="432" x2="432" y1="485.8281" y2="498.8281"/><line style="stroke: #A80036; stroke-width: 1.0;" x1="391" x2="432" y1="498.8281" y2="498.8281"/><polygon fill="#A80036" points="401,494.8281,391,498.8281,401,502.8281,397,498.8281" style="stroke: #A80036; stroke-width: 1.0;"/><text fill="#000000" font-family="sans-serif" font-size="13" lengthAdjust="spacingAndGlyphs" textLength="135" x="397" y="480.9717">update worker statuses</text><polygon fill="#A80036" points="56,508.8281,46,512.8281,56,516.8281,52,512.8281" style="stroke: #A80036; stroke-width: 1.0;"/><line style="stroke: #A80036; stroke-width: 1.0; stroke-dasharray: 2.0,2.0;" x1="50" x2="379" y1="512.8281" y2="512.8281"/><polygon fill="#A80036" points="368,539.1797,378,543.1797,368,547.1797,372,543.1797" style="stroke: #A80036; stroke-width: 1.0;"/><line style="stroke: #A80036; stroke-width: 1.0;" x1="45" x2="374" y1="543.1797" y2="543.1797"/><text fill="#000000" font-family="sans-serif" font-size="13" lengthAdjust="spacingAndGlyphs" textLength="195" x="52" y="538.3232">updateWorkerStatus (if timed out)</text><line style="stroke: #A80036; stroke-width: 1.0;" x1="390" x2="432" y1="573.5313" y2="573.5313"/><line style="stroke: #A80036; stroke-width: 1.0;" x1="432" x2="432" y1="573.5313" y2="586.5313"/><line style="stroke: #A80036; stroke-width: 1.0;" x1="391" x2="432" y1="586.5313" y2="586.5313"/><polygon fill="#A80036" points="401,582.5313,391,586.5313,401,590.5313,397,586.5313" style="stroke: #A80036; stroke-width: 1.0;"/><text fill="#000000" font-family="sans-serif" font-size="13" lengthAdjust="spacingAndGlyphs" textLength="135" x="397" y="568.6748">update worker statuses</text><polygon fill="#A80036" points="51,596.5313,41,600.5313,51,604.5313,47,600.5313" style="stroke: #A80036; stroke-width: 1.0;"/><line style="stroke: #A80036; stroke-width: 1.0; stroke-dasharray: 2.0,2.0;" x1="45" x2="384" y1="600.5313" y2="600.5313"/><!--
@startuml
activate Worker
Worker -> Storage: checkLeadershipStatus
activate Storage
Storage -> Storage: check current leadership status\nDisable leader if timeout
Storage - -> Worker:
deactivate Storage

Worker->Storage: (if no leader) sendLeadershipCandidacy
activate Storage
Storage->Storage: mark new candidate
Storage- ->Worker:

Worker -> Storage: checkCandidacy
Storage -> Storage: mark new leader if success
Storage - -> Worker: status if candidacy was successfull
deactivate Storage

Worker -> Storage: (if leader) getWorkerStatuses
activate Storage
Storage -> Storage: collect worker statuses
Storage - -> Worker:

Worker -> Storage: setTopologyStatus (to unassigned if worker timed out)
Storage -> Storage: update worker statuses
Storage - -> Worker:

Worker -> Storage: updateWorkerStatus (if timed out)
Storage -> Storage: update worker statuses
Storage - -> Worker:

deactivate Storage

deactivate Worker
@enduml

PlantUML version 1.2018.14(Fri Dec 21 17:33:16 CET 2018)
(GPL source distribution)
Java Runtime: Java(TM) SE Runtime Environment
JVM: Java HotSpot(TM) 64-Bit Server VM
Java Version: 1.8.0_151-b12
Operating System: Windows 10
OS Version: 10.0
Default Encoding: Cp1252
Language: en
Country: US
--></g></svg>