<?xml version="1.0" encoding="UTF-8" standalone="no"?><svg xmlns="http://www.w3.org/2000/svg" xmlns:xlink="http://www.w3.org/1999/xlink" contentScriptType="application/ecmascript" contentStyleType="text/css" height="278px" preserveAspectRatio="none" style="width:393px;height:278px;" version="1.1" viewBox="0 0 393 278" width="393px" zoomAndPan="magnify"><defs><filter height="300%" id="feylctt33cto" width="300%" x="-1" y="-1"><feGaussianBlur result="blurOut" stdDeviation="2.0"/><feColorMatrix in="blurOut" result="blurOut2" type="matrix" values="0 0 0 0 0 0 0 0 0 0 0 0 0 0 0 0 0 0 .4 0"/><feOffset dx="4.0" dy="4.0" in="blurOut2" result="blurOut3"/><feBlend in="SourceGraphic" in2="blurOut3" mode="normal"/></filter></defs><g><ellipse cx="60.5" cy="18" fill="#000000" filter="url(#feylctt33cto)" rx="10" ry="10" style="stroke: none; stroke-width: 1.0;"/><rect fill="#FEFECE" filter="url(#feylctt33cto)" height="50" rx="12.5" ry="12.5" style="stroke: #A80036; stroke-width: 1.5;" width="93" x="14" y="89"/><line style="stroke: #A80036; stroke-width: 1.5;" x1="14" x2="107" y1="116.6094" y2="116.6094"/><text fill="#000000" font-family="sans-serif" font-size="14" lengthAdjust="spacingAndGlyphs" textLength="73" x="24" y="108.5332">unassigned</text><rect fill="#FEFECE" filter="url(#feylctt33cto)" height="50" rx="12.5" ry="12.5" style="stroke: #A80036; stroke-width: 1.5;" width="63" x="252" y="89"/><line style="stroke: #A80036; stroke-width: 1.5;" x1="252" x2="315" y1="116.6094" y2="116.6094"/><text fill="#000000" font-family="sans-serif" font-size="14" lengthAdjust="spacingAndGlyphs" textLength="43" x="262" y="108.5332">waiting</text><rect fill="#FEFECE" filter="url(#feylctt33cto)" height="50" rx="12.5" ry="12.5" style="stroke: #A80036; stroke-width: 1.5;" width="68" x="149.5" y="217"/><line style="stroke: #A80036; stroke-width: 1.5;" x1="149.5" x2="217.5" y1="244.6094" y2="244.6094"/><text fill="#000000" font-family="sans-serif" font-size="14" lengthAdjust="spacingAndGlyphs" textLength="48" x="159.5" y="236.5332">running</text><rect fill="#FEFECE" filter="url(#feylctt33cto)" height="50" rx="12.5" ry="12.5" style="stroke: #A80036; stroke-width: 1.5;" width="71" x="310" y="217"/><line style="stroke: #A80036; stroke-width: 1.5;" x1="310" x2="381" y1="244.6094" y2="244.6094"/><text fill="#000000" font-family="sans-serif" font-size="14" lengthAdjust="spacingAndGlyphs" textLength="51" x="320" y="236.5332">stopped</text><rect fill="#FEFECE" filter="url(#feylctt33cto)" height="50" rx="12.5" ry="12.5" style="stroke: #A80036; stroke-width: 1.5;" width="51" x="6" y="217"/><line style="stroke: #A80036; stroke-width: 1.5;" x1="6" x2="57" y1="244.6094" y2="244.6094"/><text fill="#000000" font-family="sans-serif" font-size="14" lengthAdjust="spacingAndGlyphs" textLength="31" x="16" y="236.5332">error</text><!--link *start to unassigned--><path d="M60.5,28.013 C60.5,40.698 60.5,64.409 60.5,83.57 " fill="none" id="*start-unassigned" style="stroke: #A80036; stroke-width: 1.0;"/><polygon fill="#A80036" points="60.5,88.84,64.5,79.84,60.5,83.84,56.5,79.84,60.5,88.84" style="stroke: #A80036; stroke-width: 1.0;"/><!--link unassigned to waiting--><path d="M107.168,126.845 C121.441,130.194 137.263,133.331 152,135 C176.289,137.752 182.775,138.265 207,135 C220.255,133.214 234.461,129.761 246.99,126.163 " fill="none" id="unassigned-waiting" style="stroke: #A80036; stroke-width: 1.0;"/><polygon fill="#A80036" points="251.885,124.726,242.1227,123.4228,247.0874,126.1343,244.376,131.099,251.885,124.726" style="stroke: #A80036; stroke-width: 1.0;"/><text fill="#000000" font-family="sans-serif" font-size="13" lengthAdjust="spacingAndGlyphs" textLength="53" x="153" y="131.4951">by leader</text><!--link unassigned to waiting--><path d="M112.426,114 C155.591,114 215.621,114 251.893,114 " fill="none" id="unassigned-waiting" style="stroke: #A80036; stroke-width: 1.0;"/><polygon fill="#A80036" points="107.248,114,116.248,118,112.248,114,116.248,110,107.248,114" style="stroke: #A80036; stroke-width: 1.0;"/><text fill="#000000" font-family="sans-serif" font-size="13" lengthAdjust="spacingAndGlyphs" textLength="108" x="125.5" y="107.4951">by leader (timeout)</text><!--link waiting to running--><path d="M264.219,139.294 C247.549,160.298 223.441,190.6748 205.914,212.7578 " fill="none" id="waiting-running" style="stroke: #A80036; stroke-width: 1.0;"/><polygon fill="#A80036" points="202.722,216.7805,211.4498,212.217,205.83,212.8639,205.1831,207.2441,202.722,216.7805" style="stroke: #A80036; stroke-width: 1.0;"/><text fill="#000000" font-family="sans-serif" font-size="13" lengthAdjust="spacingAndGlyphs" textLength="56" x="240.5" y="183.4951">by worker</text><!--link running to stopped--><path d="M217.856,242 C243.194,242 277.77,242 304.546,242 " fill="none" id="running-stopped" style="stroke: #A80036; stroke-width: 1.0;"/><polygon fill="#A80036" points="309.792,242,300.792,238,304.792,242,300.792,246,309.792,242" style="stroke: #A80036; stroke-width: 1.0;"/><text fill="#000000" font-family="sans-serif" font-size="13" lengthAdjust="spacingAndGlyphs" textLength="56" x="235.75" y="235.4951">by worker</text><!--link unassigned to running--><path d="M87.8782,143.046 C109.477,165.171 139.29,195.7113 159.857,216.7805 " fill="none" id="unassigned-running" style="stroke: #A80036; stroke-width: 1.0;"/><polygon fill="#A80036" points="84.2156,139.294,87.6385,148.5289,87.7076,142.8725,93.3641,142.9416,84.2156,139.294" style="stroke: #A80036; stroke-width: 1.0;"/><text fill="#000000" font-family="sans-serif" font-size="13" lengthAdjust="spacingAndGlyphs" textLength="53" x="130.5" y="183.4951">by leader</text><!--link waiting to stopped--><path d="M297.707,143.873 C308.559,165.927 323.344,195.9725 333.582,216.7805 " fill="none" id="waiting-stopped" style="stroke: #A80036; stroke-width: 1.0;"/><polygon fill="#A80036" points="295.454,139.294,295.8383,149.1354,297.6614,143.7803,303.0165,145.6034,295.454,139.294" style="stroke: #A80036; stroke-width: 1.0;"/><text fill="#000000" font-family="sans-serif" font-size="13" lengthAdjust="spacingAndGlyphs" textLength="53" x="319.5" y="183.4951">by leader</text><!--link error to running--><path d="M62.501,242 C87.7137,242 123.252,242 149.292,242 " fill="none" id="error-running" style="stroke: #A80036; stroke-width: 1.0;"/><polygon fill="#A80036" points="57.2847,242,66.2847,246,62.2847,242,66.2847,238,57.2847,242" style="stroke: #A80036; stroke-width: 1.0;"/><text fill="#000000" font-family="sans-serif" font-size="13" lengthAdjust="spacingAndGlyphs" textLength="56" x="75.25" y="235.4951">by worker</text><!--link unassigned to error--><path d="M53.7269,144.428 C48.6632,166.429 41.8234,196.1466 37.0743,216.7805 " fill="none" id="unassigned-error" style="stroke: #A80036; stroke-width: 1.0;"/><polygon fill="#A80036" points="54.9085,139.294,48.9919,147.1676,53.7871,144.1666,56.7881,148.9618,54.9085,139.294" style="stroke: #A80036; stroke-width: 1.0;"/><text fill="#000000" font-family="sans-serif" font-size="13" lengthAdjust="spacingAndGlyphs" textLength="42" x="49.5" y="183.4951">manual</text><!--
@startuml
[*] -down-> unassigned
unassigned -right-> waiting : by leader
waiting - -> running: by worker
waiting -left-> unassigned : by leader (timeout)
running -right-> stopped: by worker
running -up-> unassigned: by leader
stopped -up-> waiting : by leader
running -left-> error: by worker
error -up-> unassigned: manual
@enduml

PlantUML version 1.2018.14(Fri Dec 21 17:33:16 CET 2018)
(GPL source distribution)
Java Runtime: Java(TM) SE Runtime Environment
JVM: Java HotSpot(TM) 64-Bit Server VM
Java Version: 1.8.0_151-b12
Operating System: Windows 10
OS Version: 10.0
Default Encoding: Cp1252
Language: en
Country: US
--></g></svg>